<svg xmlns="http://www.w3.org/2000/svg" xmlns:se="http://svg-edit.googlecode.com" xmlns:xlink="http://www.w3.org/1999/xlink" xmlns:dc="http://purl.org/dc/elements/1.1/" xmlns:cc="http://creativecommons.org/ns#" xmlns:rdf="http://www.w3.org/1999/02/22-rdf-syntax-ns#" xmlns:inkscape="http://www.inkscape.org/namespaces/inkscape" width="49" height="48" style="">                                    <title>my vector image</title>                                    <!-- Created with Vector Paint - http://www.vectorpaint.yaks.com/ https://chrome.google.com/webstore/detail/hnbpdiengicdefcjecjbnjnoifekhgdo -->                                    <rect id="backgroundrect" width="100%" height="100%" x="0" y="0" fill="#FFFFFF" stroke="none" style="" class=""/>                                <g class="currentLayer" style=""><title>Layer 1</title><g class=""><path fill="#4a90d6" fill-opacity="1" stroke="#222222" stroke-opacity="1" stroke-width="2" stroke-dasharray="none" stroke-linejoin="round" stroke-linecap="butt" stroke-dashoffset="" fill-rule="nonzero" opacity="1" marker-start="" marker-mid="" marker-end="" d="M14.164495594752571,47.483214682123716 L25.383012034813927,1.1358787669368444 " id="svg_1" class=""/><path fill="#4a90d6" fill-opacity="1" stroke="#222222" stroke-opacity="1" stroke-width="2" stroke-dasharray="none" stroke-linejoin="round" stroke-linecap="butt" stroke-dashoffset="" fill-rule="nonzero" opacity="1" marker-start="" marker-mid="" marker-end="" d="M25.383012034813927,1.8956711589890882 L37.349429570879366,33.04715923313108 " id="svg_3" class=""/><path fill="#4a90d6" fill-opacity="1" stroke="#222222" stroke-opacity="1" stroke-width="2" stroke-dasharray="none" stroke-linejoin="round" stroke-linecap="butt" stroke-dashoffset="" fill-rule="nonzero" opacity="1" marker-start="" marker-mid="" marker-end="" d="M37.72338011888141,32.28736684107884 L14.538446142754616,47.483214682123716 " id="svg_2" class=""/><path fill="#4a90d6" fill-opacity="1" stroke="#222222" stroke-opacity="1" stroke-width="2" stroke-dasharray="none" stroke-linejoin="round" stroke-linecap="butt" stroke-dashoffset="" fill-rule="nonzero" opacity="1" marker-start="" marker-mid="" marker-end="" d="M14.164495594752571,47.483214682123716 L1.8241275106851023,23.549754332478038 " id="svg_5" class=""/><path fill="#4a90d6" fill-opacity="1" stroke="#222222" stroke-opacity="1" stroke-width="2" stroke-dasharray="none" stroke-linejoin="round" stroke-linecap="butt" stroke-dashoffset="" fill-rule="nonzero" opacity="1" marker-start="" marker-mid="" marker-end="" d="M25.383012034813927,1.1358787669368444 L1.8241275106851023,22.41006574439967 " id="svg_7" class=""/><path fill="#4a90d6" fill-opacity="1" stroke="#222222" stroke-opacity="1" stroke-width="2" stroke-dasharray="none" stroke-linejoin="round" stroke-linecap="butt" stroke-dashoffset="" fill-rule="nonzero" opacity="1" marker-start="" marker-mid="" marker-end="" d="M36.60152847487527,32.28736684107884 L20.521654910787333,20.130688568242938 " id="svg_9" class=""/><path fill="#4a90d6" fill-opacity="1" stroke="#222222" stroke-opacity="1" stroke-width="2" stroke-dasharray="none" stroke-linejoin="round" stroke-linecap="butt" stroke-dashoffset="" fill-rule="nonzero" opacity="1" marker-start="" marker-mid="" marker-end="" d="M19.773753814783245,20.510584764269062 L2.198078058687147,22.789961940425794 " id="svg_11" class=""/><path fill="#4a90d6" fill-opacity="1" stroke="#222222" stroke-opacity="1" stroke-width="2" stroke-dasharray="none" stroke-linejoin="round" stroke-linecap="butt" stroke-dashoffset="" fill-rule="nonzero" opacity="1" marker-start="" marker-mid="" marker-end="" d="M37.72338011888141,31.527574449026595 L47.44609436693458,9.113698883485403 " id="svg_13" class=""/><path fill="#4a90d6" fill-opacity="1" stroke="#222222" stroke-opacity="1" stroke-width="2" stroke-dasharray="none" stroke-linejoin="round" stroke-linecap="butt" stroke-dashoffset="" fill-rule="nonzero" opacity="1" marker-start="" marker-mid="" marker-end="" d="M25.383012034813927,1.1358787669368444 L47.820044914936624,9.873491275537647 " id="svg_15" class=""/><path fill="#000000" fill-opacity="1" stroke="#222222" stroke-opacity="1" stroke-width="2" stroke-dasharray="none" stroke-linejoin="round" stroke-linecap="butt" stroke-dashoffset="" fill-rule="nonzero" opacity="1" marker-start="" marker-mid="" marker-end="" d="M12.863896835435916,46.25805576874346 C12.863896835435916,45.383874690975865 13.560901443979029,44.67578801798415 14.421400960698914,44.67578801798415 C15.281900477418798,44.67578801798415 15.978905085961914,45.383874690975865 15.978905085961914,46.25805576874346 C15.978905085961914,47.13223684651104 15.281900477418798,47.84032351950276 14.421400960698914,47.84032351950276 C13.560901443979029,47.84032351950276 12.863896835435916,47.13223684651104 12.863896835435916,46.25805576874346 z" id="svg_17" class=""/><path fill="#000000" fill-opacity="1" stroke="#222222" stroke-opacity="1" stroke-width="2" stroke-dasharray="none" stroke-linejoin="round" stroke-linecap="butt" stroke-dashoffset="" fill-rule="nonzero" opacity="1" marker-start="" marker-mid="" marker-end="" d="M19.146267208932308,20.729033120323056 C19.146267208932308,19.854852042555482 19.84327181747542,19.146765369563752 20.703771334195306,19.146765369563752 C21.564270850915186,19.146765369563752 22.261275459458304,19.854852042555482 22.261275459458304,20.729033120323056 C22.261275459458304,21.603214198090637 21.564270850915186,22.31130087108236 20.703771334195306,22.31130087108236 C19.84327181747542,22.31130087108236 19.146267208932308,21.603214198090637 19.146267208932308,20.729033120323056 z" class="" id="svg_20"/><path fill="#000000" fill-opacity="1" stroke="#222222" stroke-opacity="1" stroke-width="2" stroke-dasharray="none" stroke-linejoin="round" stroke-linecap="butt" stroke-dashoffset="" fill-rule="nonzero" opacity="1" marker-start="" marker-mid="" marker-end="" d="M1.9085796642958288e-16,22.932431703975187 C1.9085796642958288e-16,22.058250626207602 0.6970046085431125,21.35016395321588 1.557504125262997,21.35016395321588 C2.4180036419828816,21.35016395321588 3.115008250525994,22.058250626207602 3.115008250525994,22.932431703975187 C3.115008250525994,23.806612781742764 2.4180036419828816,24.514699454734487 1.557504125262997,24.514699454734487 C0.6970046085431125,24.514699454734487 1.9085796642958288e-16,23.806612781742764 1.9085796642958288e-16,22.932431703975187 z" class="" id="svg_21"/><path fill="#000000" fill-opacity="1" stroke="#222222" stroke-opacity="1" stroke-width="2" stroke-dasharray="none" stroke-linejoin="round" stroke-linecap="butt" stroke-dashoffset="" fill-rule="nonzero" opacity="1" marker-start="" marker-mid="" marker-end="" d="M23.48409386979344,1.5822677507593053 C23.48409386979344,0.7080866729917233 24.264772519723262,2.348349554623638e-17 25.228573322105735,2.348349554623638e-17 C26.19237412448821,2.348349554623638e-17 26.97305277441803,0.7080866729917233 26.97305277441803,1.5822677507593053 C26.97305277441803,2.4564488285268857 26.19237412448821,3.164535501518611 25.228573322105735,3.164535501518611 C24.264772519723262,3.164535501518611 23.48409386979344,2.4564488285268857 23.48409386979344,1.5822677507593053 z" class="" id="svg_22"/><path fill="#000000" fill-opacity="1" stroke="#222222" stroke-opacity="1" stroke-width="2" stroke-dasharray="none" stroke-linejoin="round" stroke-linecap="butt" stroke-dashoffset="" fill-rule="nonzero" opacity="1" marker-start="" marker-mid="" marker-end="" d="M35.749673025574786,32.27787672503311 C35.749673025574786,31.40369564726552 36.44667763411791,30.6956089742738 37.30717715083778,30.6956089742738 C38.16767666755765,30.6956089742738 38.864681276100775,31.40369564726552 38.864681276100775,32.27787672503311 C38.864681276100775,33.15205780280069 38.16767666755765,33.86014447579241 37.30717715083778,33.86014447579241 C36.44667763411791,33.86014447579241 35.749673025574786,33.15205780280069 35.749673025574786,32.27787672503311 z" class="" id="svg_23"/><path fill="#000000" fill-opacity="1" stroke="#222222" stroke-opacity="1" stroke-width="2" stroke-dasharray="none" stroke-linejoin="round" stroke-linecap="butt" stroke-dashoffset="" fill-rule="nonzero" opacity="1" marker-start="" marker-mid="" marker-end="" d="M45.397597588413745,9.788020950235756 C45.397597588413745,8.913839872468174 46.09460219695686,8.20575319947645 46.95510171367674,8.20575319947645 C47.8156012303966,8.20575319947645 48.512605838939734,8.913839872468174 48.512605838939734,9.788020950235756 C48.512605838939734,10.662202028003337 47.8156012303966,11.37028870099506 46.95510171367674,11.37028870099506 C46.09460219695686,11.37028870099506 45.397597588413745,10.662202028003337 45.397597588413745,9.788020950235756 z" class="" id="svg_24"/></g></g></svg>